# xmcd
#
# Track frame offsets:
#       150
#       12385
#       29237
#       45247
#       60182
#       76122
#       86900
#       101665
#       112120
#       135337
#
# Disc length: 1962 seconds
#
# Revision: 1
# Processed by: cddbd v1.5.2PL0 Copyright (c) Steve Scherf et al.
# Submitted via: FreeDbEdit v0.1
#
DISCID=7707a80a
DTITLE=Various Artist - A Country Christmas, Volume 2
DYEAR=1995
DGENRE=Country
TTITLE0=Two-Step Around the Christmas Tree
TTITLE1=The Christmas Song
TTITLE2=I Still Believe in Christmas
TTITLE3=Dancing Snowman
TTITLE4=Have Yourself a Merry Little Christmas
TTITLE5=Santa Claus Is Coming to Town
TTITLE6=Christmas to Christmas
TTITLE7=What Child Is This
TTITLE8=Except at Christmas Time
TTITLE9=Winter Wonderland
EXTD=
EXTT0=
EXTT1=
EXTT2=
EXTT3=
EXTT4=
EXTT5=
EXTT6=
EXTT7=
EXTT8=
EXTT9=
PLAYORDER=
